<svg xmlns="http://www.w3.org/2000/svg" xmlns:xlink="http://www.w3.org/1999/xlink" width="768" height="1024" viewBox="0 0 768 1024">
  <defs>
    <clipPath id="clip-iPad_1">
      <rect width="768" height="1024"/>
    </clipPath>
  </defs>
  <g id="iPad_1" data-name="iPad – 1" clip-path="url(#clip-iPad_1)">
    <rect width="768" height="1024" fill="#fff"/>
    <g id="Rectangle_4" data-name="Rectangle 4" transform="translate(272.726 414.924) rotate(17)" fill="#e34949" stroke="#e34949" stroke-width="1">
      <rect width="37" height="73" stroke="none"/>
      <rect x="0.5" y="0.5" width="36" height="72" fill="none"/>
    </g>
    <g id="Path_23" data-name="Path 23" transform="translate(302.31 422.281) rotate(-16)" fill="#e34949">
      <path d="M 36.5 75.5 L 0.5 75.5 L 0.5 0.5 L 36.5 0.5 L 36.5 75.5 Z" stroke="none"/>
      <path d="M 1 1 L 1 75 L 36 75 L 36 1 L 1 1 M 0 0 L 37 0 L 37 76 L 0 76 L 0 0 Z" stroke="none" fill="#e34949"/>
    </g>
    <g id="Ellipse_3" data-name="Ellipse 3" transform="translate(242 309)" fill="#faca02" stroke="#faca02" stroke-width="1">
      <ellipse cx="66" cy="63.5" rx="66" ry="63.5" stroke="none"/>
      <ellipse cx="66" cy="63.5" rx="65.5" ry="63" fill="none"/>
    </g>
    <path id="Path_1" data-name="Path 1" d="M434.8,345.017c.232-.413,5.454,17.206,5.454,17.206s14.98,19.858,23.993,12.516,12.563-11.583,13.146-12.516,7.256-17.9,7.766-24.788-9.646-43.4-32.3-28.542S434.566,345.43,434.8,345.017Z" transform="matrix(0.985, 0.174, -0.174, 0.985, 66.176, -57.735)" fill="#fce7d8" stroke="#fce7d8" stroke-width="1"/>
    <path id="Path_2" data-name="Path 2" d="M429.7,352.119c9,12.078,19.378-.318,20.147,0s19.032,1.223,17.277-5.856-1.811,12.5,10.214,14.17,0,13.253,0,13.253h0c.889-1.9,22.215,5.409,15.937-45.691-1.953-15.892-9.381-6.17-15.937-20.509-12.412-8.262-27.713,6.895-27.492,7.707.322,1.179-20.431,12.323-20.147,12.8S420.7,340.042,429.7,352.119Z" fill="#4a4848" stroke="#4a4848" stroke-width="1"/>
    <path id="Path_3" data-name="Path 3" d="M483.658,308.637c6.525-10.718,1.158-9.521,8.884-18.334s22.793,13.189,31.652,15,23.487-3.64,21.684,3.338-11.351,8.107,0,8.333-16.048,25.916,0,16.009-1.687-.767-14.172,0-7.369-30.4-21.918-12.349-14.143-12.958-17.246-3.66-4.323,3.66-4.323,3.66Z" transform="matrix(0.695, 0.719, -0.719, 0.695, 377.047, -208.258)" fill="#4a4848" stroke="#4a4848" stroke-width="1"/>
    <path id="Path_4" data-name="Path 4" d="M457.432,393.1c.893,2.393,1.6,3.1,0,5.488-5.921,8.8-8.546,12.166-8.546,12.166l23.354-15.567h0l-1.6-4.771v-6.252Z" fill="#fce7d8" stroke="#fce7d8" stroke-width="1"/>
    <path id="Path_5" data-name="Path 5" d="M472.871,395.217c4.872.1,7.538.69,7.832,1.076s3.938,1.507,4.277,2.259-24.366,20.5-24.366,20.5l-29.669,15.987,7.834-14.642,9.866-8.508,12.73-9.177Z" fill="#e5f0ff" stroke="#e5f0ff" stroke-width="1"/>
    <path id="Path_7" data-name="Path 7" d="M411.671,433.451c-25.213-5.948-37.757-8.266-37.757-8.266l-8.788-2.119s-.977-6.936-2.813-8.029-6.946-10.692-8.712-10.492-1.011,2.15-.791,3.867,3.372,3.3,3.372,3.3,2.878,3.505-1.4,3.327-6.826,2.445-11.375-3.327a20.885,20.885,0,0,0-10.58-7.165s-10.285-6.645-2.268,2.288,8.131,15.014,12.849,16.233,14.136,5.888,18.91,6.677,14.982,4.99,24.55,9.878,18.549,8.952,19.005,8.24.2-8.068,2.338-10.526S411.671,433.451,411.671,433.451Z" transform="matrix(0.974, -0.225, 0.225, 0.974, -71.144, 119.032)" fill="#fce7d8" stroke="#fce7d8" stroke-width="1"/>
    <path id="Path_8" data-name="Path 8" d="M457.964,397.164c-6.545-1.062-13.188.04-14.4,1.8s-4.822,1.086-7.343,7.108-4.841,7.029-9.414,14.871-8.741,13.24-9.073,20.2-1.055,6.781,0,6.822,10.294.754,10.294.754l29.931-4.03,8.263-7,7.9-8.219s1.963-9.415,2.622-11.53a81.347,81.347,0,0,1,4.343-11.877c2.62-5.675,3.02-6.6,3.716-7.108s-5.759,5.049-5.809,5.572-16.421,14.823-17.577,14.873-13.7,6.819-14.254,7.515-18.4,9.752-18.358,9.837,9.006-17.321,9.7-17.351,10.254-8.144,10.254-8.7S457.964,397.164,457.964,397.164Z" fill="#faf7f7" stroke="#faf7f7" stroke-width="1"/>
    <path id="Path_9" data-name="Path 9" d="M429.918,473.128s.872,1.761,2.149,4.494c2.011,4.3,5.108,11.292,5.36,13.905-.006-.029,1.98,7.025,2.017,7.257A65.021,65.021,0,0,0,441.065,507c.9,3.348-1.621,9.342-1.621,9.342s12.549,2.25,23.249,0,20.759,5.737,35.032-3.353,2.128-30.12,2.128-30.12l2.974-38.47s-22.294,19.541-26.367,21.627-5.2,3.64-13.767,7.1-17.143,4.51-19.638,5.182S429.918,473.128,429.918,473.128Z" fill="#faf7f7" stroke="#f0eded" stroke-width="1"/>
    <path id="Path_10" data-name="Path 10" d="M439.1,516.606a21.969,21.969,0,0,0,0,5.746c.431,2.917-.2,6.393,0,9.572s12.295,8.106,27.824,6.3-.922,1.691,24.933-6.3,12.882-5.349,12.953-16.242-2.6-6.72-2.6-6.72-4.489,5.241-9.323,6.72-17.126.924-17.126.924Z" fill="#33335c" stroke="#33335c" stroke-width="1"/>
    <path id="Path_12" data-name="Path 12" d="M439.42,535.349s-21.5,25.909-30.208,61.594-7.18,28.192-7.18,28.192-22.05,16.138-21.507,31.513-18.753,126.211-19.378,126.763,15.122,16.755,52.511,13.274,53.652-4.041,69.443,0,63.022-1.886,72.891-8.888,26.089,8.575,14.874-20.412-47.261-75.243-48.178-93.27c-.325-6.381-7.03-12.851-8.591-17.466a25.305,25.305,0,0,1,0-14.8s1.28-.235,8.591-24.836-1.855-35.886-3.557-60.693-10.022-32.556-10.022-32.556v2.308s-5.692,6.1-12.6,7.942-20.168,6.045-20.752,6.681-13.162,1.584-18.113,1.5S439.42,535.349,439.42,535.349Z" transform="translate(-1.404)" fill="#33335c" stroke="#33335c" stroke-width="1"/>
    <path id="Path_11" data-name="Path 11" d="M505.839,527.469a67.326,67.326,0,0,1-14.172,5.069c-6.834,1.391-6.545,2.589-6.545,2.589s-.7,20.583,2.88,26.726,5.11,15.428,7.053,15.876,8.489-22.195,7.233-27.677S505.839,527.469,505.839,527.469Z" transform="translate(-1)" fill="#fcf9f9" stroke="#33335c" stroke-width="1"/>
    <path id="Path_13" data-name="Path 13" d="M435.989,538.614l15.4,5.484a28.673,28.673,0,0,0,17.182,2.025c9.183-1.983,15.473-10.714,15.473-10.714l-11.968,3.2s-11.224,1.63-17.689,0a151.451,151.451,0,0,1-15.32-5.165Z" transform="translate(0 -1)" fill="#1e2753" stroke="#1e2753" stroke-width="1"/>
    <path id="Path_14" data-name="Path 14" d="M508,523.766l3.007,4.156-7.29,3.729v-3.729l4.283-1.99Z" fill="#1e2753" stroke="#1e2753" stroke-width="1"/>
    <path id="Path_15" data-name="Path 15" d="M430.277,754.594s-9.473-17.869-8.589-34.15,2.848-59.023,4.779-53.056,6.91,29.228,12.425,35.314,42.793,53.076,42.793,53.076a125.23,125.23,0,0,0-30.636-2.177C433.577,754.433,430.277,754.594,430.277,754.594Z" fill="#1e2753" stroke="#1e2753" stroke-width="1"/>
    <path id="Path_16" data-name="Path 16" d="M526.18,625.756a221.128,221.128,0,0,0-26.362,14.377L493,650.237l22.1-11.183-6.078,11.183s8.8-6.421,11.632-3.989,12.562-4.621,4.586,3,2.358-3,2.358-3-.532-.978,1.425-.978c.959,0,.576-1.271-2.839-5.137h0l-.944-6.335Z" transform="translate(-199.581 222.792) rotate(-21)" fill="#1e2753" stroke="#1e2753" stroke-width="1"/>
    <path id="Path_17" data-name="Path 17" d="M540.167,596.351s1.566,34.938,20.47,54.541,55.173,67.57,62.449,93.494c1.7,6.04,17.765,22.039,15.256,22.443-4.9,1.193-40.675-34.719-40.675-34.719s-49.039-38.365-51.5-41.671-9.923-14.378-9.923-14.378l-4.054-8.295L518.4,656.479l-3.5-5.587-1.892-3.814,1.892-10.606,3.5-7.449Z" transform="translate(499.647 1594.635) rotate(-139)" fill="#33335c" stroke="#33335c" stroke-width="1"/>
    <path id="Path_18" data-name="Path 18" d="M525.215,613.181l-1.6-16.069-9.751,26.52-1.286,9.51,2.895,6.468,6.723,12.418L519.3,630.061Z" fill="#1e2753" stroke="#1e2753" stroke-width="1"/>
    <path id="Path_6" data-name="Path 6" d="M471.238,408.815c-13.741,10.412-24.181,28.764-24.181,28.764l-11.2,5.636s-9.757,4.606-12.527,4.115-32.7-8.042-32.933-7.972-4.1.7-7.46,7.972,0,18.3,0,18.3,4.055,11.095,7.46,11.29,17.609,2.625,26.745,1.883,28.416-3.014,31.668-4.716,22.932-4.628,29.04-13.957,5.932-17.991,4.77-26.408-.836-18.329-6.07-21.61S471.238,408.815,471.238,408.815Z" transform="translate(-61.476 95.936) rotate(-12)" fill="#faf7f7" stroke="#faf7f7" stroke-width="1"/>
    <text id="_Arisa_Fukuzaki" data-name="©️Arisa Fukuzaki" transform="translate(460 822)" fill="#707070" font-size="12" font-family="AppleColorEmoji, Apple Color Emoji"><tspan x="0" y="0">©️</tspan><tspan y="0" font-family="Helvetica">Arisa Fukuzaki</tspan></text>
    <path id="Path_21" data-name="Path 21" d="M383.617,626.855s10.056-22.472,16.754-32.095,11.317-17.508,11.317-17.508L401.4,610.077s-2.126.352-7.121,5.058A141.655,141.655,0,0,0,383.617,626.855Z" transform="translate(-31.908 36.637) rotate(-3)" fill="#33335c" stroke="#33335c" stroke-width="1"/>
    <path id="Path_22" data-name="Path 22" d="M433.271,480.722s-.083.405,9.6-1.6a138.562,138.562,0,0,0,17.688-4.949,46.971,46.971,0,0,0,5.159-1.969,30.819,30.819,0,0,0,4.39-1.908c5.747-3.409,5.409-3.128,5.409-3.128s-7.888,5.08-10.1,6.169a76.9,76.9,0,0,1-8.046,3.225c-.848.288-1.943.57-3.135.889-.8.217-3.155.742-3.908.876-1.319.235-3.182.731-5.179,1.129-2.328.464-4.648.815-4.648.815Z" transform="translate(0.198)" fill="#eae7e7" stroke="#eae7e7" stroke-width="1"/>
    <g id="Ellipse_1" data-name="Ellipse 1" transform="translate(240 305)" fill="#fddf61" stroke="#fddf61" stroke-width="1">
      <ellipse cx="66" cy="63.5" rx="66" ry="63.5" stroke="none"/>
      <ellipse cx="66" cy="63.5" rx="65.5" ry="63" fill="none"/>
    </g>
    <g id="Ellipse_2" data-name="Ellipse 2" transform="translate(257 320)" fill="#fdcd61" stroke="#fdcd61" stroke-width="1">
      <ellipse cx="49" cy="48.5" rx="49" ry="48.5" stroke="none"/>
      <ellipse cx="49" cy="48.5" rx="48.5" ry="48" fill="none"/>
    </g>
    <g id="Rectangle_1" data-name="Rectangle 1" transform="translate(275.103 357.566) rotate(47)" fill="#96d690" stroke="#96d690" stroke-width="1">
      <rect width="30" height="19" stroke="none"/>
      <rect x="0.5" y="0.5" width="29" height="18" fill="none"/>
    </g>
    <g id="Rectangle_2" data-name="Rectangle 2" transform="translate(281.548 392.224) rotate(-45)" fill="#96d690" stroke="#96d690" stroke-width="1">
      <rect width="74" height="18" stroke="none"/>
      <rect x="0.5" y="0.5" width="73" height="17" fill="none"/>
    </g>
    <g id="Polygon_1" data-name="Polygon 1" transform="translate(257.856 462.196) rotate(17)" fill="#fff">
      <path d="M 37.94950866699219 23.5 L 1.050491213798523 23.5 L 19.5 0.7929113507270813 L 37.94950866699219 23.5 Z" stroke="none"/>
      <path d="M 19.5 1.58580207824707 L 2.100963592529297 23 L 36.8990364074707 23 L 19.5 1.58580207824707 M 19.5 -1.9073486328125e-06 L 39 24 L 0 24 L 19.5 -1.9073486328125e-06 Z" stroke="none" fill="#fff"/>
    </g>
    <g id="Polygon_2" data-name="Polygon 2" transform="translate(315.764 473.093) rotate(-16)" fill="#fff">
      <path d="M 37.94950866699219 23.5 L 1.050491213798523 23.5 L 19.5 0.7929113507270813 L 37.94950866699219 23.5 Z" stroke="none"/>
      <path d="M 19.5 1.58580207824707 L 2.100963592529297 23 L 36.8990364074707 23 L 19.5 1.58580207824707 M 19.5 -1.9073486328125e-06 L 39 24 L 0 24 L 19.5 -1.9073486328125e-06 Z" stroke="none" fill="#fff"/>
    </g>
  </g>
</svg>
